<svg width="4096" height="4096" viewBox="0 0 4096 4096" fill="none" xmlns="http://www.w3.org/2000/svg">
<circle cx="2048" cy="2048" r="2048" fill="white"/>
<path d="M1173.22 2525.92C1173.22 2561.42 1175.95 2587.36 1181.42 2603.74C1186.88 2618.76 1197.12 2629 1212.14 2634.46C1228.52 2639.93 1254.46 2642.66 1289.96 2642.66H1359.59C1466.09 2642.66 1558.25 2614.67 1636.07 2558.69C1713.9 2501.34 1765.78 2424.2 1791.72 2327.26C1791.72 2324.53 1794.45 2323.17 1799.91 2323.17C1802.64 2323.17 1805.37 2324.53 1808.1 2327.26C1812.2 2328.63 1814.25 2329.99 1814.25 2331.36C1801.96 2466.53 1795.82 2579.17 1795.82 2669.28C1795.82 2680.2 1793.09 2688.39 1787.62 2693.86C1783.53 2697.95 1776.02 2700 1765.1 2700H798.44C795.709 2700 794.344 2695.9 794.344 2687.71C794.344 2679.52 795.709 2675.42 798.44 2675.42C842.131 2675.42 873.533 2672.01 892.648 2665.18C913.128 2658.36 926.781 2645.39 933.608 2626.27C941.8 2605.79 945.896 2575.07 945.896 2534.11V1585.89C945.896 1544.93 941.8 1514.89 933.608 1495.78C926.781 1476.66 913.128 1463.69 892.648 1456.86C872.168 1448.67 840.765 1444.58 798.44 1444.58C795.709 1444.58 794.344 1440.48 794.344 1432.29C794.344 1424.1 795.709 1420 798.44 1420L902.888 1422.05C965.693 1424.78 1017.58 1426.14 1058.54 1426.14C1099.5 1426.14 1151.38 1424.78 1214.18 1422.05L1318.63 1420C1322.73 1420 1324.78 1424.1 1324.78 1432.29C1324.78 1440.48 1322.73 1444.58 1318.63 1444.58C1276.31 1444.58 1244.9 1448.67 1224.42 1456.86C1203.94 1463.69 1190.29 1477.34 1183.46 1497.82C1176.64 1516.94 1173.22 1546.98 1173.22 1587.94V2525.92ZM3333.7 1420C3336.43 1420 3337.8 1424.1 3337.8 1432.29C3337.8 1440.48 3336.43 1444.58 3333.7 1444.58C3279.09 1444.58 3236.08 1466.42 3204.68 1510.11C3173.28 1552.44 3157.58 1609.78 3157.58 1682.14V2730.72C3157.58 2734.82 3154.16 2737.55 3147.34 2738.91C3141.87 2740.28 3137.78 2739.59 3135.05 2736.86L2174.54 1643.23V2439.9C2174.54 2512.27 2189.55 2569.61 2219.59 2611.94C2249.63 2654.26 2291.27 2675.42 2344.52 2675.42C2347.25 2675.42 2348.62 2679.52 2348.62 2687.71C2348.62 2695.9 2347.25 2700 2344.52 2700C2306.29 2700 2276.94 2699.32 2256.46 2697.95L2145.86 2695.9L2018.89 2697.95C1995.68 2699.32 1962.23 2700 1918.54 2700C1914.44 2700 1912.39 2695.9 1912.39 2687.71C1912.39 2679.52 1914.44 2675.42 1918.54 2675.42C1978.61 2675.42 2025.71 2654.26 2059.85 2611.94C2095.35 2569.61 2113.1 2512.27 2113.1 2439.9V1573.6C2068.04 1524.45 2029.13 1491 1996.36 1473.25C1964.96 1454.13 1932.19 1444.58 1898.06 1444.58C1895.33 1444.58 1893.96 1440.48 1893.96 1432.29C1893.96 1424.1 1895.33 1420 1898.06 1420L1984.07 1422.05C2001.82 1423.41 2027.76 1424.1 2061.9 1424.1L2217.54 1422.05C2236.66 1420.68 2259.87 1420 2287.18 1420C2298.1 1420 2306.29 1422.73 2311.75 1428.19C2317.21 1433.65 2326.77 1445.26 2340.42 1463.01C2363.63 1494.41 2380.02 1515.57 2389.58 1526.5L3098.18 2343.65V1682.14C3098.18 1608.42 3083.17 1550.39 3053.13 1508.06C3023.09 1465.74 2981.45 1444.58 2928.2 1444.58C2925.47 1444.58 2924.1 1440.48 2924.1 1432.29C2924.1 1424.1 2925.47 1420 2928.2 1420L3016.26 1422.05C3059.95 1424.78 3096.82 1426.14 3126.86 1426.14C3154.16 1426.14 3192.39 1424.78 3241.54 1422.05L3333.7 1420Z" fill="black"/>
</svg>
