<svg width="4096" height="4096" viewBox="0 0 4096 4096" fill="none" xmlns="http://www.w3.org/2000/svg">
<rect width="4096" height="4096" rx="1024" fill="#1E2227"/>
<path fill-rule="evenodd" clip-rule="evenodd" d="M2048.16 1131.39L988.036 2191.32C734.82 2444.49 734.82 2854.96 988.036 3108.12C1241.25 3361.29 1651.8 3361.29 1905.01 3108.12L2048.16 2965L2048.16 2344.17L1598.41 2793.84C1516.6 2875.63 1383.96 2875.63 1302.15 2793.84C1220.35 2712.05 1220.35 2579.44 1302.15 2497.64L2048.16 1751.77L2048.16 1131.39Z" fill="#28ABF9"/>
<path d="M2048.16 2966.29L1440.69 2358.69L1751.7 2047.68L2048.16 2344.2V2966.29Z" fill="#793ACC"/>
<path d="M2047.84 1130.4L1906.53 989.065C1652.9 735.382 1241.69 735.382 988.058 989.065C734.428 1242.75 734.428 1654.05 988.058 1907.73L1129.97 2049.68L1440.98 1738.66L1302.91 1600.56C1220.97 1518.6 1220.97 1385.72 1302.91 1303.76C1384.85 1221.8 1517.71 1221.8 1599.65 1303.76L2047.84 1752.04V1130.4Z" fill="#793ACC"/>
<path fill-rule="evenodd" clip-rule="evenodd" d="M2048.08 2964.61L3108.21 1904.68C3361.43 1651.51 3361.43 1241.05 3108.21 987.876C2855 734.708 2444.45 734.708 2191.23 987.877L2048.08 1131V1751.83L2497.84 1302.16C2579.65 1220.37 2712.29 1220.37 2794.09 1302.16C2875.9 1383.95 2875.9 1516.56 2794.09 1598.36L2048.08 2344.23V2964.61Z" fill="#3B88F4"/>
<path d="M2048.16 2966.04L2189.47 3107.37C2443.1 3361.05 2854.31 3361.05 3107.94 3107.37C3361.57 2853.69 3361.57 2442.38 3107.94 2188.7L2965.95 2046.68L2654.93 2357.69L2793.09 2495.87C2875.03 2577.83 2875.03 2710.71 2793.09 2792.67C2711.15 2874.63 2578.29 2874.63 2496.35 2792.67L2048.16 2344.39V2966.04Z" fill="#5515A6"/>
<path d="M2047.84 1130.39L2655.23 1737.91L2344.22 2048.92L2047.84 1752.48V1130.39Z" fill="#5515A6"/>
</svg>
