<svg width="2048" height="2048" viewBox="0 0 2048 2048" fill="none" xmlns="http://www.w3.org/2000/svg">
<g id="Component 1">
<rect id="Background" width="2048" height="2048" rx="256" fill="#001834"/>
<path id="Text" d="M925.091 786.182C920.727 742.182 902 708 868.909 683.636C835.818 659.273 790.909 647.091 734.182 647.091C695.636 647.091 663.091 652.545 636.545 663.455C610 674 589.636 688.727 575.455 707.636C561.636 726.545 554.727 748 554.727 772C554 792 558.182 809.455 567.273 824.364C576.727 839.273 589.636 852.182 606 863.091C622.364 873.636 641.273 882.909 662.727 890.909C684.182 898.545 707.091 905.091 731.455 910.545L831.818 934.545C880.545 945.455 925.273 960 966 978.182C1006.73 996.364 1042 1018.73 1071.82 1045.27C1101.64 1071.82 1124.73 1103.09 1141.09 1139.09C1157.82 1175.09 1166.36 1216.36 1166.73 1262.91C1166.36 1331.27 1148.91 1390.55 1114.36 1440.73C1080.18 1490.55 1030.73 1529.27 966 1556.91C901.636 1584.18 824 1597.82 733.091 1597.82C642.909 1597.82 564.364 1584 497.455 1556.36C430.909 1528.73 378.909 1487.82 341.455 1433.64C304.364 1379.09 284.909 1311.64 283.091 1231.27H511.636C514.182 1268.73 524.909 1300 543.818 1325.09C563.091 1349.82 588.727 1368.55 620.727 1381.27C653.091 1393.64 689.636 1399.82 730.364 1399.82C770.364 1399.82 805.091 1394 834.545 1382.36C864.364 1370.73 887.455 1354.55 903.818 1333.82C920.182 1313.09 928.364 1289.27 928.364 1262.36C928.364 1237.27 920.909 1216.18 906 1199.09C891.455 1182 870 1167.45 841.636 1155.45C813.636 1143.45 779.273 1132.55 738.545 1122.73L616.909 1092.18C522.727 1069.27 448.364 1033.45 393.818 984.727C339.273 936 312.182 870.364 312.545 787.818C312.182 720.182 330.182 661.091 366.545 610.545C403.273 560 453.636 520.545 517.636 492.182C581.636 463.818 654.364 449.636 735.818 449.636C818.727 449.636 891.091 463.818 952.909 492.182C1015.09 520.545 1063.45 560 1098 610.545C1132.55 661.091 1150.36 719.636 1151.45 786.182H925.091ZM1766.86 744.182V918.727H1262.32V744.182H1766.86ZM1376.86 543.455H1609.23V1324.55C1609.23 1346 1612.5 1362.73 1619.05 1374.73C1625.59 1386.36 1634.68 1394.55 1646.32 1399.27C1658.32 1404 1672.14 1406.36 1687.77 1406.36C1698.68 1406.36 1709.59 1405.45 1720.5 1403.64C1731.41 1401.45 1739.77 1399.82 1745.59 1398.73L1782.14 1571.64C1770.5 1575.27 1754.14 1579.45 1733.05 1584.18C1711.95 1589.27 1686.32 1592.36 1656.14 1593.45C1600.14 1595.64 1551.05 1588.18 1508.86 1571.09C1467.05 1554 1434.5 1527.45 1411.23 1491.45C1387.95 1455.45 1376.5 1410 1376.86 1355.09V543.455Z" fill="#00A9FF"/>
</g>
</svg>
