<svg width="4097" height="4097" viewBox="0 0 4097 4097" fill="none" xmlns="http://www.w3.org/2000/svg">
<path d="M2048.46 1026.2V3076.68L3072.46 2051.44L2048.46 1026.2Z" fill="#363D5A"/>
<path d="M2048.46 1026.2L1024.46 2051.44L2048.46 3076.68V1026.2Z" fill="#445472"/>
<rect width="2173.55" height="724.516" transform="matrix(0.706716 -0.707497 0.706716 0.707497 0.461334 2051.44)" fill="#884DFF"/>
<rect width="2173.55" height="724.516" transform="matrix(0.706679 -0.707535 0.706679 0.707535 2048.46 3076.68)" fill="#D30041"/>
<path d="M3072.46 2051.44L1536.46 513.581L2048.46 0.961304L3584.46 1538.82L3072.46 2051.44Z" fill="#FEBE00"/>
<path d="M1536.46 513.746L2045.62 6.0871L2045.62 1021.4L1536.46 513.746Z" fill="#FFDA2C"/>
<path d="M2048.46 4095.92L512.461 2558.05L1024.46 2045.43L2560.46 3583.3L2048.46 4095.92Z" fill="#5BE167"/>
<path d="M2560.46 3589.3L2051.3 4096.96V3081.64L2560.46 3589.3Z" fill="#1FC974"/>
</svg>
